<?xml version="1.0" standalone="no"?>
<!DOCTYPE svg PUBLIC "-//W3C//DTD SVG 20010904//EN"
 "http://www.w3.org/TR/2001/REC-SVG-20010904/DTD/svg10.dtd">
<svg version="1.0" xmlns="http://www.w3.org/2000/svg"
 width="512.000000pt" height="512.000000pt" viewBox="0 0 512.000000 512.000000"
 preserveAspectRatio="xMidYMid meet">
<metadata>
Created by potrace 1.14, written by Peter Selinger 2001-2017
</metadata>
<g transform="translate(0.000000,512.000000) scale(0.100000,-0.100000)"
fill="#000000" stroke="none">
<path d="M2000 3515 l0 -165 135 0 135 0 0 165 0 165 -135 0 -135 0 0 -165z"/>
<path d="M825 3094 c-258 -42 -440 -200 -461 -401 -7 -62 1 -159 14 -180 5 -7
57 -14 141 -19 l133 -7 -7 24 c-11 35 -9 170 3 201 19 46 80 105 134 128 112
48 280 34 375 -31 83 -57 115 -174 74 -266 -39 -85 -149 -134 -391 -172 -172
-28 -239 -45 -313 -82 -183 -93 -261 -318 -187 -535 63 -181 225 -304 425
-321 200 -17 377 82 473 264 l37 71 54 -144 53 -144 69 0 69 0 0 603 c0 651
-1 660 -55 766 -51 102 -169 187 -310 226 -60 16 -272 28 -330 19z m411 -1027
c-27 -156 -83 -258 -180 -324 -138 -94 -337 -80 -419 30 -56 75 -62 193 -14
266 40 60 98 88 285 136 159 41 254 78 312 124 l25 20 3 -85 c1 -47 -4 -122
-12 -167z"/>
<path d="M4106 3085 c-323 -67 -492 -364 -361 -632 68 -138 164 -193 480 -277
175 -46 234 -70 284 -112 55 -48 73 -85 73 -153 0 -147 -97 -233 -279 -248
-124 -10 -250 27 -317 93 -49 49 -66 98 -66 198 l0 89 -127 -7 c-70 -3 -129
-9 -132 -12 -3 -3 -6 -56 -6 -117 0 -105 2 -116 32 -180 65 -136 195 -233 370
-274 106 -25 322 -25 412 0 155 42 290 144 343 257 80 170 57 365 -58 489 -78
85 -171 130 -402 195 -212 60 -274 85 -315 124 -42 39 -57 75 -57 132 0 91 40
148 135 192 40 18 67 23 140 23 109 0 154 -15 212 -68 55 -51 78 -122 69 -208
l-7 -58 68 5 c180 13 192 15 197 32 45 159 -33 345 -185 443 -117 75 -341 108
-503 74z"/>
<path d="M2000 2265 l0 -785 135 0 135 0 0 785 0 785 -135 0 -135 0 0 -785z"/>
<path d="M2590 2275 l0 -115 385 0 385 0 0 115 0 115 -385 0 -385 0 0 -115z"/>
</g>
</svg>
